<svg xmlns="http://www.w3.org/2000/svg" xmlns:xlink="http://www.w3.org/1999/xlink" xmlns:serif="http://www.serif.com/" width="100%" height="100%" viewBox="0 0 324 33" xml:space="preserve" style="fill-rule:evenodd;clip-rule:evenodd;stroke-linejoin:round;stroke-miterlimit:2;">    <g transform="matrix(1,0,0,1,-56,-60.48)">        <g transform="matrix(1,0,0,1,56,58)">            <path id="A" d="M241.957,29.54C241.282,29.54 240.792,29.103 240.792,28.353L240.792,10.48L242.386,10.48C243.122,10.48 243.613,10.792 243.613,11.667L243.613,29.603L241.957,29.603L241.957,29.54ZM241.773,6.543C241.037,6.543 240.607,6.231 240.607,5.481L240.607,3.42L242.57,3.42C243.245,3.42 243.797,3.67 243.797,4.545L243.797,6.545L241.773,6.545L241.773,6.543ZM126.473,29.603C119.039,29.603 113.478,23.765 113.478,16.313C113.478,8.983 118.976,2.96 126.535,2.96C131.221,2.96 134.032,4.637 136.593,7.06C136.593,7.06 136.031,7.68 135.468,8.24C134.906,8.86 134.156,8.737 133.656,8.302C131.719,6.687 129.47,5.632 126.471,5.632C120.723,5.632 116.475,10.228 116.475,16.19C116.475,22.152 120.785,26.873 126.471,26.873C129.531,26.873 131.656,25.879 133.771,24.14C134.333,23.643 135.208,23.58 135.833,24.202C136.52,24.822 136.708,25.072 136.708,25.072C134.084,27.805 131.148,29.606 126.462,29.606L126.473,29.603ZM183.766,9.973C188.176,9.973 190.946,12.861 190.946,17.531L190.946,29.144L189.434,29.144C188.3,29.144 188.111,28.53 188.111,27.731L188.111,18.145C188.111,14.52 186.211,12.492 183.135,12.492C180.237,12.492 177.781,14.582 177.781,18.329L177.781,29.143L176.206,29.143C175.513,29.143 174.946,28.836 174.946,27.913L174.946,18.083C174.946,14.581 173.046,12.491 169.97,12.491C166.894,12.491 164.616,14.949 164.616,18.391L164.616,27.915C164.616,28.898 164.236,29.082 163.419,29.082L161.782,29.082L161.782,10.28L163.357,10.28C164.302,10.28 164.679,10.833 164.679,11.58L164.679,13.423C165.939,11.58 167.639,9.859 170.916,9.859C174.066,9.859 176.081,11.519 177.089,13.607C178.412,11.702 180.429,9.982 183.766,9.982L183.766,9.973ZM206.71,29.64C203.084,29.64 200.794,27.71 199.266,25.595L199.266,35.115L197.613,35.115C196.849,35.115 196.403,34.742 196.403,33.87L196.403,10.224L197.803,10.224C198.757,10.224 199.266,10.66 199.266,11.594L199.266,14.084C200.866,11.781 203.146,9.852 206.71,9.852C211.354,9.852 216,13.462 216,19.747C216,25.97 211.42,29.642 206.71,29.642L206.71,29.64ZM206.137,12.34C202.511,12.34 199.075,15.265 199.075,19.683C199.075,24.163 202.51,27.089 206.137,27.089C209.891,27.089 213.007,24.351 213.007,19.746C213.007,15.203 209.827,12.34 206.137,12.34ZM258.11,35.117C254.914,35.117 251.97,34.254 249.4,32.467C249.4,32.467 249.588,32.097 250.09,31.297C250.592,30.497 251.218,30.681 252.032,31.174C253.849,32.16 255.854,32.714 258.047,32.714C262.245,32.714 265.002,30.434 265.002,25.997L265.002,23.779C263.31,25.936 261.002,27.723 257.482,27.723C252.908,27.723 248.459,24.395 248.459,18.849C248.459,13.303 252.909,9.913 257.482,9.913C261.054,9.913 263.435,11.638 264.938,13.733L264.938,11.638C264.938,10.838 265.69,10.344 266.254,10.344L267.82,10.344L267.82,25.934C267.82,32.034 263.998,35.116 258.108,35.116L258.11,35.117ZM258.05,12.5C254.416,12.5 251.408,14.965 251.408,18.91C251.408,22.792 254.478,25.38 258.05,25.38C261.684,25.38 265.068,22.853 265.068,18.97C265.068,14.964 261.684,12.5 258.05,12.5ZM276.313,29.144L273.418,29.144L273.418,10.222L274.991,10.222C275.684,10.222 276.313,10.592 276.313,11.397L276.313,13.561C277.571,11.521 279.583,9.861 282.919,9.861C287.574,9.861 290.279,12.953 290.279,17.405L290.279,29.155L288.517,29.155C287.7,29.155 287.385,28.785 287.385,27.981L287.385,18.086C287.385,14.561 285.435,12.396 282.037,12.396C278.703,12.396 276.247,14.746 276.247,18.333L276.311,29.155L276.313,29.144ZM227.84,9.85C233.042,9.85 235.988,12.475 236.05,17.476L236.05,29.166L234.483,29.166C233.605,29.166 233.293,28.791 233.293,28.041L233.293,26.291C231.913,28.041 229.72,29.605 226.336,29.605C222.763,29.605 219.19,27.605 219.19,23.605C219.19,19.542 222.575,17.605 227.4,17.605L231.036,17.605L231.036,18.543C231.036,19.356 230.659,19.731 229.782,19.731L227.65,19.731C224.077,19.731 222.072,21.106 222.072,23.544C222.072,25.982 224.328,27.357 226.898,27.357C230.471,27.357 233.291,25.232 233.291,22.169L233.291,17.54C233.291,14.102 231.161,12.352 227.588,12.352C225.77,12.352 224.265,12.727 222.824,13.29C222.448,13.415 221.696,13.54 221.444,12.915C221.192,12.29 220.88,11.415 220.88,11.415C222.948,10.477 225.08,9.852 227.837,9.852L227.84,9.85ZM148.55,9.85C153.752,9.85 156.698,12.475 156.76,17.476L156.76,29.166L155.193,29.166C154.315,29.166 154.003,28.791 154.003,28.041L154.003,26.291C152.623,28.041 150.43,29.605 147.046,29.605C143.473,29.605 139.901,27.605 139.901,23.605C139.901,19.542 143.286,17.605 148.111,17.605L151.746,17.605L151.746,18.543C151.746,19.356 151.37,19.731 150.492,19.731L148.362,19.731C144.789,19.731 142.784,21.106 142.784,23.544C142.784,25.982 145.04,27.357 147.61,27.357C151.183,27.357 154.003,25.232 154.003,22.169L154.003,17.54C154.003,14.102 151.873,12.352 148.299,12.352C146.481,12.352 144.977,12.727 143.535,13.29C143.159,13.415 142.407,13.54 142.155,12.915C141.903,12.29 141.591,11.415 141.591,11.415C143.721,10.477 145.791,9.852 148.548,9.852L148.55,9.85ZM322.604,19.66L303.304,32.842L303.304,30.28C303.304,29.468 303.367,29.093 304.32,28.468C305.22,27.906 320.137,17.722 320.137,17.722L304.437,6.976C303.739,6.476 303.23,6.164 303.23,5.226L303.23,2.48L322.604,15.787C323.239,16.224 323.621,16.787 323.621,17.474L323.621,17.786C323.621,18.411 323.366,19.098 322.604,19.66ZM303.494,11.676C303.494,10.82 304.321,10.514 305.02,11.003C305.92,11.553 314.43,17.239 314.43,17.239L313.222,18.034C312.268,18.707 311.442,18.768 310.488,18.156C309.343,17.422 303.494,13.509 303.494,13.509L303.494,11.675L303.494,11.676ZM37.727,29.604C32.097,29.604 27.797,25.084 27.797,19.758C27.797,14.371 32.034,9.85 37.727,9.85C41.395,9.85 43.672,11.336 45.443,13.194C45.443,13.194 44.873,13.814 44.368,14.309C43.798,14.866 43.23,14.804 42.471,14.185C41.143,13.132 39.688,12.327 37.664,12.327C33.744,12.327 30.77,15.609 30.77,19.697C30.77,23.847 33.87,27.067 37.854,27.067C39.878,27.067 41.522,26.262 42.85,25.085C43.166,24.837 43.988,24.405 44.62,25.023C44.922,25.327 45.239,25.617 45.569,25.89C43.672,28.057 41.395,29.605 37.726,29.605L37.727,29.604ZM64.63,29.541C63.955,29.541 63.464,29.104 63.464,28.354L63.464,10.48L65.059,10.48C65.795,10.48 66.286,10.792 66.286,11.667L66.286,29.603L64.63,29.603L64.63,29.54L64.63,29.541ZM64.507,6.544C63.771,6.544 63.341,6.232 63.341,5.482L63.341,3.42L65.304,3.42C65.979,3.42 66.531,3.857 66.531,4.732L66.531,6.544L64.507,6.544ZM85.825,11.379C86.137,10.625 86.698,10.373 87.385,10.373L89.318,10.373L81.4,28.662C81.088,29.354 80.652,29.605 79.966,29.605L79.592,29.605C78.844,29.605 78.407,29.479 78.096,28.725C77.784,28.033 70.178,10.31 70.178,10.31L72.173,10.31C72.921,10.31 73.483,10.624 73.793,11.378C74.043,12.132 79.778,26.148 79.778,26.148L85.825,11.378L85.825,11.379ZM106.497,20.901L96.724,20.963L96.724,19.913C96.724,19.173 97.168,18.741 97.93,18.741L105.736,18.741C106.244,18.741 106.498,18.431 106.371,17.753C106.117,14.667 103.833,12.321 100.341,12.321C96.978,12.321 94.439,15.037 94.058,18.741C94.058,18.741 93.995,19.171 93.995,19.791C93.994,20.121 94.015,20.451 94.058,20.779C94.502,24.915 97.485,27.199 100.912,27.199C103.132,27.199 104.847,26.521 106.242,25.286C106.622,24.916 107.257,24.792 107.892,25.286L108.844,26.088C106.877,28.188 104.529,29.608 100.848,29.608C95.518,29.608 91.148,25.596 91.148,19.731C91.148,14.237 95.083,9.854 100.478,9.854C105.491,9.854 108.918,13.249 109.363,17.817C109.49,19.483 108.793,20.903 106.507,20.903L106.497,20.901ZM15.006,4.26L26.386,29.293L24.76,29.293C24.072,29.293 23.197,29.169 22.822,28.363C22.447,27.557 13.193,6.74 13.193,6.74L7.253,19.938L16.257,19.938L16.257,21.178C16.257,21.984 15.694,22.541 14.757,22.541L6.127,22.541L3.563,28.118C3.125,28.924 2.625,29.295 1.813,29.295L0,29.295L11.38,4.2C11.693,3.642 12.193,3.333 12.756,3.333L13.506,3.333C14.256,3.333 14.631,3.519 15.006,4.263L15.006,4.26ZM52.626,23.846C52.626,26.146 53.976,27.004 55.902,27.004C56.608,27.004 57.122,26.88 57.829,26.704C58.471,26.518 59.242,26.641 59.242,27.57C59.242,28.252 59.178,28.808 59.178,28.808C58.15,29.304 56.545,29.613 55.196,29.613C52.049,29.613 49.673,28.127 49.673,24.289L49.673,3.42L51.086,3.42C51.921,3.42 52.563,3.853 52.563,4.72L52.563,10.352L57.251,10.352C57.957,10.352 58.791,10.722 58.791,11.652L58.791,12.828L52.561,12.828L52.625,23.846L52.626,23.846Z" style="fill:rgb(53,106,230);fill-rule:nonzero;"></path>        </g>    </g></svg>