<svg xmlns="http://www.w3.org/2000/svg" xmlns:xlink="http://www.w3.org/1999/xlink" xmlns:serif="http://www.serif.com/" width="100%" height="100%" viewBox="0 0 1762 364" xml:space="preserve" style="fill-rule:evenodd;clip-rule:evenodd;stroke-linejoin:round;stroke-miterlimit:2;"> <g transform="matrix(1,0,0,1,-1245.6,0)"> <g id="Artboard2" transform="matrix(0.871921,0,0,0.543399,183.222,0)"> <rect x="1218.43" y="0" width="2019.92" height="668.234" style="fill:none;"></rect> <g transform="matrix(7.6096,0,0,12.2101,-16279.4,-4131.64)"> <path d="M2459.64,387.894C2454.43,387.894 2450.21,385.827 2446.98,381.692L2455.45,373.811C2457.17,376.137 2459.39,377.3 2462.1,377.3C2463.95,377.3 2465.56,376.664 2466.91,375.394C2468.27,374.124 2469.25,372.326 2469.85,370C2467.96,371.464 2465.74,372.196 2463.2,372.196C2461.3,372.196 2459.58,371.884 2458.03,371.26C2456.48,370.635 2455.16,369.774 2454.06,368.676C2452.96,367.578 2452.12,366.275 2451.54,364.768C2450.96,363.26 2450.67,361.624 2450.67,359.858C2450.67,357.317 2451.22,354.905 2452.31,352.623C2453.41,350.34 2454.89,348.338 2456.74,346.615C2458.59,344.893 2460.73,343.525 2463.17,342.513C2465.6,341.501 2468.15,340.995 2470.82,340.995C2475,340.995 2478.14,342.384 2480.25,345.162C2482.36,347.94 2483.42,351.805 2483.42,356.757C2483.42,361.15 2482.84,365.241 2481.67,369.031C2480.51,372.821 2478.89,376.115 2476.8,378.915C2474.71,381.714 2472.21,383.91 2469.3,385.504C2466.4,387.097 2463.18,387.894 2459.64,387.894ZM2466.23,362.571C2467.01,362.571 2467.75,362.399 2468.46,362.054C2469.17,361.71 2469.81,361.236 2470.37,360.633C2470.93,360.03 2471.38,359.33 2471.72,358.534C2472.07,357.737 2472.24,356.886 2472.24,355.982C2472.24,354.69 2471.91,353.581 2471.24,352.655C2470.57,351.729 2469.7,351.266 2468.62,351.266C2467.94,351.266 2467.22,351.46 2466.49,351.848C2465.76,352.235 2465.1,352.752 2464.52,353.398C2463.94,354.044 2463.47,354.787 2463.1,355.627C2462.74,356.467 2462.55,357.339 2462.55,358.243C2462.55,359.492 2462.89,360.526 2463.55,361.344C2464.22,362.162 2465.12,362.571 2466.23,362.571Z" style="fill:url(#_Linear1);fill-rule:nonzero;"></path> </g> <g transform="matrix(4.95706,0,0,7.95395,-10892.7,-2527.77)"> <path d="M2458.42,332.016L2489.04,332.016L2486.71,342.998L2468.69,342.998L2467.33,349.458L2482.71,349.458L2480.51,359.664L2465.14,359.664L2463.59,366.899L2482.19,366.899L2479.87,377.881L2448.66,377.881L2458.42,332.016Z" style="fill:url(#_Linear2);fill-rule:nonzero;"></path> <path d="M2498.6,378.462C2497.01,378.462 2495.39,378.333 2493.75,378.075C2492.12,377.816 2490.52,377.45 2488.97,376.977C2487.42,376.503 2485.94,375.943 2484.52,375.297C2483.1,374.651 2481.8,373.919 2480.64,373.101L2488.39,362.119C2488.69,362.334 2489.23,362.722 2490.01,363.282C2490.78,363.842 2491.74,364.401 2492.88,364.961C2494.02,365.521 2495.3,366.016 2496.72,366.447C2498.15,366.878 2499.63,367.093 2501.18,367.093C2502.65,367.093 2503.57,366.845 2503.96,366.35C2504.35,365.855 2504.54,365.306 2504.54,364.703C2504.54,364.143 2504.3,363.659 2503.83,363.249C2503.36,362.84 2502.73,362.463 2501.96,362.119C2501.18,361.774 2500.29,361.441 2499.28,361.118C2498.26,360.795 2497.22,360.418 2496.14,359.987C2493.3,358.868 2491.18,357.511 2489.78,355.917C2488.38,354.324 2487.68,352.3 2487.68,349.845C2487.68,346.96 2488.26,344.387 2489.43,342.126C2490.59,339.865 2492.12,337.959 2494.01,336.409C2495.91,334.858 2498.05,333.674 2500.44,332.856C2502.83,332.038 2505.25,331.628 2507.71,331.628C2509.3,331.628 2510.84,331.79 2512.33,332.113C2513.81,332.436 2515.21,332.845 2516.53,333.34C2517.84,333.836 2519.05,334.374 2520.17,334.955C2521.29,335.537 2522.28,336.086 2523.15,336.602L2515.52,347.003C2515.48,346.96 2515.15,346.712 2514.52,346.26C2513.9,345.808 2513.09,345.323 2512.1,344.807C2511.11,344.29 2509.99,343.827 2508.74,343.418C2507.49,343.009 2506.22,342.804 2504.93,342.804C2503.98,342.804 2503.17,343.019 2502.51,343.45C2501.84,343.881 2501.51,344.57 2501.51,345.517C2501.51,346.508 2502.13,347.261 2503.38,347.778C2504.63,348.295 2506.29,348.919 2508.35,349.651C2509.9,350.254 2511.31,350.879 2512.58,351.525C2513.85,352.171 2514.95,352.924 2515.88,353.786C2516.8,354.647 2517.51,355.659 2518.01,356.822C2518.51,357.985 2518.75,359.363 2518.75,360.956C2518.75,364.229 2518.14,366.975 2516.91,369.193C2515.68,371.41 2514.1,373.208 2512.16,374.587C2510.23,375.965 2508.06,376.955 2505.67,377.558C2503.28,378.161 2500.92,378.462 2498.6,378.462Z" style="fill:url(#_Linear3);fill-rule:nonzero;"></path> <path d="M2536.97,378.269C2534.17,378.269 2531.69,377.72 2529.54,376.621C2527.39,375.523 2525.56,374.059 2524.05,372.229C2522.54,370.398 2521.4,368.31 2520.63,365.963C2519.85,363.616 2519.46,361.172 2519.46,358.631C2519.46,355.444 2520.16,352.257 2521.56,349.07C2522.96,345.883 2524.9,343.009 2527.38,340.446C2529.85,337.884 2532.78,335.795 2536.16,334.18C2539.54,332.565 2543.24,331.758 2547.24,331.758C2551.46,331.758 2554.95,332.673 2557.71,334.503C2560.46,336.333 2562.27,338.756 2563.13,341.77L2552.09,348.618C2551.91,347.498 2551.58,346.572 2551.09,345.84C2550.59,345.108 2549.99,344.527 2549.28,344.096C2548.57,343.665 2547.8,343.364 2546.98,343.192C2546.16,343.019 2545.37,342.933 2544.59,342.933C2542.61,342.933 2540.86,343.407 2539.33,344.354C2537.8,345.302 2536.52,346.508 2535.48,347.972C2534.45,349.436 2533.66,351.04 2533.13,352.784C2532.59,354.529 2532.32,356.197 2532.32,357.791C2532.32,359.04 2532.47,360.235 2532.77,361.376C2533.07,362.517 2533.53,363.508 2534.13,364.348C2534.73,365.187 2535.48,365.855 2536.39,366.35C2537.29,366.845 2538.37,367.093 2539.62,367.093C2540.39,367.093 2541.22,366.996 2542.11,366.802C2542.99,366.609 2543.85,366.286 2544.69,365.833C2545.53,365.381 2546.33,364.8 2547.08,364.089C2547.83,363.379 2548.49,362.507 2549.05,361.473L2558.03,367.61C2557.04,369.289 2555.74,370.797 2554.12,372.132C2552.51,373.467 2550.74,374.587 2548.82,375.491C2546.91,376.395 2544.92,377.084 2542.85,377.558C2540.78,378.032 2538.82,378.269 2536.97,378.269Z" style="fill:url(#_Linear4);fill-rule:nonzero;"></path> <path d="M2577.15,332.016L2588.71,332.016L2593.82,377.881L2581.03,377.881L2580.57,368.902L2569.59,368.902L2565.39,377.881L2552.54,377.881L2577.15,332.016ZM2580.38,360.504L2579.86,346.292L2573.21,360.504L2580.38,360.504Z" style="fill:url(#_Linear5);fill-rule:nonzero;"></path> <path d="M2603.89,332.016L2622.76,332.016C2624.61,332.016 2626.26,332.393 2627.7,333.146C2629.14,333.9 2630.37,334.891 2631.38,336.118C2632.39,337.345 2633.17,338.756 2633.71,340.349C2634.24,341.943 2634.51,343.579 2634.51,345.259C2634.51,347.498 2634.03,349.727 2633.06,351.945C2632.09,354.163 2630.78,356.144 2629.12,357.888C2627.46,359.632 2625.53,361.053 2623.34,362.151C2621.14,363.249 2618.8,363.799 2616.3,363.799L2609.71,363.799L2606.74,377.881L2594.14,377.881L2603.89,332.016ZM2617.78,352.817C2618.17,352.817 2618.59,352.688 2619.04,352.429C2619.49,352.171 2619.9,351.772 2620.27,351.234C2620.64,350.696 2620.95,350.017 2621.21,349.199C2621.47,348.381 2621.59,347.412 2621.59,346.292C2621.59,345.043 2621.37,344.182 2620.92,343.708C2620.46,343.235 2620,342.998 2619.53,342.998L2614.16,342.998L2612.1,352.817L2617.78,352.817Z" style="fill:url(#_Linear6);fill-rule:nonzero;"></path> <path d="M2639.55,332.016L2670.17,332.016L2667.85,342.998L2649.82,342.998L2648.47,349.458L2663.84,349.458L2661.65,359.664L2646.27,359.664L2644.72,366.899L2663.33,366.899L2661,377.881L2629.8,377.881L2639.55,332.016Z" style="fill:url(#_Linear7);fill-rule:nonzero;"></path> </g> <g transform="matrix(1.53871,0,0,2.46898,822.835,-1355.37)"> <path d="M750.019,764.999C747.72,764.999 745.926,765.94 744.638,767.824C743.349,769.708 742.705,772.305 742.705,775.615C742.705,782.497 745.323,785.938 750.557,785.938C752.139,785.938 753.672,785.717 755.156,785.277C756.64,784.837 758.132,784.307 759.632,783.687L759.632,791.857C756.648,793.178 753.272,793.839 749.505,793.839C744.108,793.839 739.97,792.273 737.091,789.142C734.213,786.011 732.774,781.486 732.774,775.566C732.774,771.864 733.471,768.611 734.865,765.806C736.26,763.001 738.265,760.844 740.883,759.336C743.5,757.827 746.578,757.073 750.117,757.073C753.982,757.073 757.676,757.913 761.198,759.593L758.238,767.2C756.917,766.581 755.596,766.059 754.275,765.635C752.954,765.211 751.536,764.999 750.019,764.999ZM508.806,764.999C506.506,764.999 504.713,765.94 503.424,767.824C502.136,769.708 501.492,772.305 501.492,775.615C501.492,782.497 504.109,785.938 509.344,785.938C510.926,785.938 512.459,785.717 513.943,785.277C515.427,784.837 516.919,784.307 518.419,783.687L518.419,791.857C515.435,793.178 512.059,793.839 508.292,793.839C502.894,793.839 498.756,792.273 495.878,789.142C493,786.011 491.56,781.486 491.56,775.566C491.56,771.864 492.258,768.611 493.652,765.806C495.046,763.001 497.052,760.844 499.669,759.336C502.287,757.827 505.365,757.073 508.904,757.073C512.768,757.073 516.462,757.913 519.985,759.593L517.025,767.2C515.704,766.581 514.383,766.059 513.062,765.635C511.741,765.211 510.322,764.999 508.806,764.999ZM871.254,757.587L871.254,779.113C871.254,783.793 869.929,787.418 867.28,789.986C864.63,792.554 860.809,793.839 855.819,793.839C850.943,793.839 847.197,792.591 844.579,790.096C841.962,787.601 840.653,784.013 840.653,779.333L840.653,757.587L850.364,757.587L850.364,778.575C850.364,781.102 850.837,782.937 851.783,784.079C852.729,785.22 854.123,785.791 855.966,785.791C857.939,785.791 859.37,785.224 860.259,784.091C861.148,782.957 861.592,781.102 861.592,778.526L861.592,757.587L871.254,757.587ZM324.798,775.419C324.798,781.437 323.322,786.011 320.37,789.142C317.418,792.273 313.097,793.839 307.406,793.839C301.796,793.839 297.495,792.265 294.502,789.118C291.51,785.97 290.014,781.388 290.014,775.37C290.014,769.418 291.502,764.872 294.478,761.733C297.454,758.594 301.779,757.024 307.455,757.024C313.146,757.024 317.459,758.582 320.395,761.696C323.33,764.811 324.798,769.385 324.798,775.419ZM452.897,793.349L452.897,757.587L462.608,757.587L462.608,793.349L452.897,793.349ZM547.934,793.349L547.934,757.587L557.645,757.587L557.645,793.349L547.934,793.349ZM363.314,793.349L353.799,793.349L353.799,757.587L374.934,757.587L374.934,765.341L363.314,765.341L363.314,772.166L374.029,772.166L374.029,779.92L363.314,779.92L363.314,793.349ZM412.863,793.349L403.348,793.349L403.348,757.587L424.483,757.587L424.483,765.341L412.863,765.341L412.863,772.166L423.577,772.166L423.577,779.92L412.863,779.92L412.863,793.349ZM646.836,793.349L646.836,757.587L656.498,757.587L656.498,785.546L670.27,785.546L670.27,793.349L646.836,793.349ZM789.147,793.349L789.147,757.587L798.81,757.587L798.81,785.546L812.581,785.546L812.581,793.349L789.147,793.349ZM901.308,757.587L913.783,757.587C918.643,757.587 922.251,758.309 924.607,759.752C926.964,761.195 928.142,763.441 928.142,766.491C928.142,768.497 927.628,770.209 926.601,771.628C925.573,773.047 924.22,773.96 922.54,774.367L922.54,774.612C924.758,775.199 926.364,776.178 927.359,777.547C928.354,778.917 928.851,780.695 928.851,782.88C928.851,786.125 927.632,788.681 925.194,790.549C922.756,792.416 919.434,793.349 915.226,793.349L901.308,793.349L901.308,757.587ZM609.86,793.349L608.099,786.647L596.48,786.647L594.67,793.349L584.054,793.349L595.722,757.44L608.613,757.44L620.428,793.349L609.86,793.349ZM910.97,778.379L910.97,785.889L914.37,785.889C917.387,785.889 918.895,784.617 918.895,782.073C918.895,780.882 918.492,779.969 917.685,779.333C916.877,778.697 915.707,778.379 914.174,778.379L910.97,778.379ZM300.19,775.419C300.19,782.334 302.595,785.791 307.406,785.791C309.852,785.791 311.666,784.951 312.848,783.271C314.031,781.592 314.622,778.974 314.622,775.419C314.622,771.848 314.022,769.21 312.824,767.506C311.625,765.802 309.835,764.95 307.455,764.95C302.611,764.95 300.19,768.44 300.19,775.419ZM606.093,778.722L604.552,772.851C604.194,771.546 603.757,769.858 603.244,767.787C602.73,765.716 602.392,764.232 602.229,763.335C602.082,764.167 601.792,765.537 601.36,767.445C600.928,769.353 599.97,773.112 598.486,778.722L606.093,778.722ZM910.97,771.31L913.881,771.31C915.267,771.31 916.339,771.024 917.097,770.454C917.856,769.883 918.235,769.035 918.235,767.91C918.235,765.904 916.718,764.901 913.685,764.901L910.97,764.901L910.97,771.31Z" style="fill:rgb(84,84,84);fill-rule:nonzero;"></path> </g> <g transform="matrix(7.6096,0,0,12.2101,-15696.9,-4131.64)"> <path d="M2458.68,387.506C2455.45,387.506 2452.69,386.882 2450.41,385.633C2448.12,384.384 2446.53,382.597 2445.63,380.271L2453.96,372.519C2454.82,373.854 2455.89,374.899 2457.16,375.652C2458.43,376.406 2459.71,376.783 2461,376.783C2462.68,376.783 2464.03,376.223 2465.04,375.103C2466.05,373.984 2466.56,372.541 2466.56,370.775C2466.56,369.742 2466.31,368.902 2465.82,368.256C2465.32,367.61 2464.6,367.287 2463.65,367.287C2462.88,367.287 2462.13,367.491 2461.42,367.901C2460.71,368.31 2460.12,368.859 2459.64,369.548L2449.18,369.548C2451.12,364.768 2452.98,360.009 2454.77,355.272C2456.55,350.534 2458.44,345.775 2460.42,340.995L2482.32,340.995L2479.93,352.171L2466.88,352.171L2465.33,357.145C2465.63,357.016 2465.99,356.93 2466.4,356.886C2466.8,356.843 2467.25,356.822 2467.72,356.822C2469.53,356.822 2471.16,357.113 2472.6,357.694C2474.04,358.275 2475.28,359.083 2476.31,360.116C2477.35,361.15 2478.13,362.399 2478.67,363.863C2479.21,365.327 2479.48,366.942 2479.48,368.708C2479.48,371.421 2478.94,373.919 2477.86,376.201C2476.79,378.484 2475.31,380.465 2473.44,382.145C2471.56,383.824 2469.37,385.138 2466.85,386.085C2464.33,387.033 2461.61,387.506 2458.68,387.506Z" style="fill:url(#_Linear8);fill-rule:nonzero;"></path> </g> <g transform="matrix(4.32824,0,0,6.94496,-7998.49,-2208.83)"> <path d="M2465.26,342.998L2452.93,342.998L2455.25,332.016L2492.46,332.016L2490.14,342.998L2477.86,342.998L2470.43,377.881L2457.84,377.881L2465.26,342.998Z" style="fill:url(#_Linear9);fill-rule:nonzero;"></path> <path d="M2502.67,378.269C2499.83,378.269 2497.3,377.73 2495.08,376.654C2492.86,375.577 2491,374.156 2489.49,372.39C2487.98,370.624 2486.84,368.579 2486.07,366.253C2485.29,363.928 2484.9,361.516 2484.9,359.018C2484.9,355.53 2485.66,352.149 2487.16,348.876C2488.67,345.603 2490.71,342.696 2493.27,340.155C2495.83,337.615 2498.8,335.58 2502.18,334.051C2505.56,332.522 2509.11,331.758 2512.81,331.758C2515.65,331.758 2518.17,332.296 2520.37,333.373C2522.57,334.449 2524.41,335.881 2525.89,337.668C2527.38,339.456 2528.51,341.501 2529.28,343.805C2530.06,346.109 2530.45,348.51 2530.45,351.008C2530.45,354.453 2529.69,357.812 2528.18,361.085C2526.68,364.358 2524.65,367.265 2522.11,369.806C2519.57,372.347 2516.62,374.393 2513.26,375.943C2509.9,377.493 2506.37,378.269 2502.67,378.269ZM2505.12,367.093C2507.19,367.093 2509,366.609 2510.55,365.64C2512.1,364.671 2513.4,363.443 2514.46,361.957C2515.51,360.472 2516.3,358.835 2516.82,357.048C2517.33,355.261 2517.59,353.527 2517.59,351.848C2517.59,350.642 2517.45,349.501 2517.17,348.424C2516.89,347.347 2516.46,346.4 2515.88,345.582C2515.3,344.763 2514.53,344.117 2513.59,343.644C2512.64,343.17 2511.52,342.933 2510.23,342.933C2508.2,342.933 2506.41,343.407 2504.86,344.354C2503.31,345.302 2502.02,346.508 2500.99,347.972C2499.95,349.436 2499.17,351.062 2498.63,352.849C2498.09,354.636 2497.82,356.37 2497.82,358.049C2497.82,359.255 2497.96,360.396 2498.24,361.473C2498.52,362.55 2498.95,363.508 2499.53,364.348C2500.12,365.187 2500.87,365.855 2501.8,366.35C2502.72,366.845 2503.83,367.093 2505.12,367.093Z" style="fill:url(#_Linear10);fill-rule:nonzero;"></path> </g> <g transform="matrix(1.23226,0,-0.148618,1.1188,-619.419,95.0727)"> <rect x="2671.97" y="307.615" width="220.229" height="60.997" style="fill:url(#_Linear11);"></rect> </g> </g> </g> <defs> <linearGradient id="_Linear1" x1="0" y1="0" x2="1" y2="0" gradientUnits="userSpaceOnUse" gradientTransform="matrix(8.95592,40.1687,-40.1687,8.95592,2496.51,319.234)"><stop offset="0" style="stop-color:rgb(187,25,139);stop-opacity:1"></stop><stop offset="1" style="stop-color:rgb(102,14,190);stop-opacity:1"></stop></linearGradient> <linearGradient id="_Linear2" x1="0" y1="0" x2="1" y2="0" gradientUnits="userSpaceOnUse" gradientTransform="matrix(13.7483,61.6631,-61.6631,13.7483,2745.72,288.414)"><stop offset="0" style="stop-color:rgb(187,25,139);stop-opacity:1"></stop><stop offset="1" style="stop-color:rgb(102,14,190);stop-opacity:1"></stop></linearGradient> <linearGradient id="_Linear3" x1="0" y1="0" x2="1" y2="0" gradientUnits="userSpaceOnUse" gradientTransform="matrix(13.7483,61.6631,-61.6631,13.7483,2745.72,288.414)"><stop offset="0" style="stop-color:rgb(187,25,139);stop-opacity:1"></stop><stop offset="1" style="stop-color:rgb(102,14,190);stop-opacity:1"></stop></linearGradient> <linearGradient id="_Linear4" x1="0" y1="0" x2="1" y2="0" gradientUnits="userSpaceOnUse" gradientTransform="matrix(13.7483,61.6631,-61.6631,13.7483,2745.72,288.414)"><stop offset="0" style="stop-color:rgb(187,25,139);stop-opacity:1"></stop><stop offset="1" style="stop-color:rgb(102,14,190);stop-opacity:1"></stop></linearGradient> <linearGradient id="_Linear5" x1="0" y1="0" x2="1" y2="0" gradientUnits="userSpaceOnUse" gradientTransform="matrix(13.7483,61.6631,-61.6631,13.7483,2745.72,288.414)"><stop offset="0" style="stop-color:rgb(187,25,139);stop-opacity:1"></stop><stop offset="1" style="stop-color:rgb(102,14,190);stop-opacity:1"></stop></linearGradient> <linearGradient id="_Linear6" x1="0" y1="0" x2="1" y2="0" gradientUnits="userSpaceOnUse" gradientTransform="matrix(13.7483,61.6631,-61.6631,13.7483,2745.72,288.414)"><stop offset="0" style="stop-color:rgb(187,25,139);stop-opacity:1"></stop><stop offset="1" style="stop-color:rgb(102,14,190);stop-opacity:1"></stop></linearGradient> <linearGradient id="_Linear7" x1="0" y1="0" x2="1" y2="0" gradientUnits="userSpaceOnUse" gradientTransform="matrix(13.7483,61.6631,-61.6631,13.7483,2745.72,288.414)"><stop offset="0" style="stop-color:rgb(187,25,139);stop-opacity:1"></stop><stop offset="1" style="stop-color:rgb(102,14,190);stop-opacity:1"></stop></linearGradient> <linearGradient id="_Linear8" x1="0" y1="0" x2="1" y2="0" gradientUnits="userSpaceOnUse" gradientTransform="matrix(8.95592,40.1687,-40.1687,8.95592,2419.96,319.234)"><stop offset="0" style="stop-color:rgb(187,25,139);stop-opacity:1"></stop><stop offset="1" style="stop-color:rgb(102,14,190);stop-opacity:1"></stop></linearGradient> <linearGradient id="_Linear9" x1="0" y1="0" x2="1" y2="0" gradientUnits="userSpaceOnUse" gradientTransform="matrix(15.7456,70.6217,-70.6217,15.7456,2475.94,284.391)"><stop offset="0" style="stop-color:rgb(187,25,139);stop-opacity:1"></stop><stop offset="1" style="stop-color:rgb(102,14,190);stop-opacity:1"></stop></linearGradient> <linearGradient id="_Linear10" x1="0" y1="0" x2="1" y2="0" gradientUnits="userSpaceOnUse" gradientTransform="matrix(15.7456,70.6217,-70.6217,15.7456,2475.94,284.391)"><stop offset="0" style="stop-color:rgb(187,25,139);stop-opacity:1"></stop><stop offset="1" style="stop-color:rgb(102,14,190);stop-opacity:1"></stop></linearGradient> <linearGradient id="_Linear11" x1="0" y1="0" x2="1" y2="0" gradientUnits="userSpaceOnUse" gradientTransform="matrix(108.178,438.384,-236.267,97.7411,2672.9,-293.903)"><stop offset="0" style="stop-color:rgb(187,25,139);stop-opacity:1"></stop><stop offset="1" style="stop-color:rgb(102,14,190);stop-opacity:1"></stop></linearGradient> </defs> </svg>