<svg xmlns="http://www.w3.org/2000/svg" xmlns:xlink="http://www.w3.org/1999/xlink" id="Layer_1" x="0px" y="0px" viewBox="0 0 376 81.3" style="enable-background:new 0 0 376 81.3;" xml:space="preserve"><style type="text/css">	.st0{fill:#333333;}	.st1{fill:#F5C400;}	.st2{fill:#FFFFFF;}</style><g>	<g>		<path class="st0" d="M71.3,3.4C70.1,1.3,67.9,0,65.4,0h-39c-2.4,0-4.7,1.3-5.9,3.4L0.9,37.2c-1.2,2.1-1.2,4.7,0,6.8l19.5,33.8   c1.2,2.1,3.5,3.4,5.9,3.4h39.1c2.4,0,4.7-1.3,5.9-3.4L90.8,44c1.2-2.1,1.2-4.7,0-6.8L71.3,3.4z"></path>		<path class="st0" d="M132.2,40.6c-1.2-0.9-2.6-1.7-4.3-2.4c-1.7-0.6-3.6-1.2-5.6-1.8c-1.6-0.4-3-0.8-4.2-1.1   c-1.2-0.4-2.2-0.8-3-1.2s-1.4-0.9-1.8-1.5c-0.4-0.6-0.6-1.3-0.6-2.1c0-1.5,0.6-2.6,1.6-3.4c1.1-0.8,2.8-1.2,5-1.2   c0.1,0,0.2,0,0.3,0c1,0,2.8,0.3,3.9,0.6c1.1,0.3,2.1,0.6,3,1c1,0.5,1.9,0.9,2.7,1.4c0.3,0.2,0.6,0.4,0.8,0.6   c0.1,0.1,0.3,0.2,0.5,0.2c0.3,0,0.6-0.2,0.7-0.4l2.9-5.2c0.2-0.4,0.1-0.8-0.3-1.1c-1.7-1.1-3.7-2.1-6-2.9   c-2.5-0.9-5.2-1.4-8.2-1.4c-2.1,0-4.1,0.3-6,0.9s-3.5,1.4-4.9,2.5s-2.5,2.5-3.3,4.2s-1.2,3.6-1.2,5.7c0,1.6,0.3,3,0.7,4.2   c0.5,1.2,1.2,2.2,2.2,3.1c1,0.9,2.2,1.7,3.7,2.3c1.5,0.7,3.2,1.3,5.3,1.8c1.5,0.4,3,0.9,4.5,1.3c1.3,0.4,2.5,0.8,3.4,1.3   s1.7,1,2.2,1.6s0.8,1.4,0.8,2.3c0,2.8-2.3,4.3-6.7,4.3c-1.6,0-3.2-0.2-4.7-0.6c-1.5-0.4-2.9-0.9-4.2-1.4c-1.3-0.6-2.4-1.1-3.3-1.7   c-0.5-0.3-0.9-0.6-1.3-0.8c-0.1-0.1-0.3-0.2-0.5-0.2c-0.3,0-0.6,0.2-0.7,0.4l-2.9,5.6c-0.2,0.4-0.1,0.8,0.3,1   c2.3,1.6,4.9,2.8,7.8,3.7c3.1,0.9,6.2,1.4,9.4,1.4c2,0,4-0.2,5.9-0.7s3.6-1.2,5-2.2c1.4-1,2.6-2.3,3.5-3.9   c0.9-1.6,1.3-3.6,1.3-5.8c0-1.9-0.3-3.6-1-4.9C134.3,42.7,133.4,41.5,132.2,40.6z"></path>		<path class="st0" d="M166.2,34.1c-1.4-1.5-3.1-2.7-5.1-3.5c-2-0.9-4.3-1.3-6.8-1.3s-4.8,0.4-6.8,1.3s-3.7,2.1-5.1,3.5   c-1.4,1.5-2.5,3.2-3.2,5.1c-0.8,1.9-1.1,4-1.1,6.2c0,2.1,0.4,4.2,1.1,6.1c0.7,1.9,1.8,3.7,3.2,5.1c1.4,1.5,3.1,2.7,5.1,3.5   c2,0.9,4.3,1.3,6.8,1.3s4.8-0.4,6.8-1.3c2-0.9,3.7-2.1,5.1-3.5c1.4-1.5,2.5-3.2,3.2-5.1c0.8-1.9,1.1-4,1.1-6.1   c0-2.2-0.4-4.3-1.1-6.2C168.7,37.3,167.6,35.6,166.2,34.1z M157.4,54c-1,0.4-2,0.7-3.2,0.7c-1.1,0-2.2-0.2-3.2-0.7   c-1-0.4-1.8-1.1-2.6-1.9c-0.7-0.8-1.3-1.8-1.7-2.9c-0.4-1.1-0.6-2.4-0.6-3.7s0.2-2.6,0.6-3.7c0.4-1.1,1-2.1,1.7-2.9   c0.7-0.8,1.6-1.5,2.6-1.9c1-0.5,2-0.7,3.2-0.7c1.1,0,2.2,0.2,3.2,0.7c1,0.4,1.8,1.1,2.6,1.9c0.7,0.8,1.3,1.8,1.7,2.9   c0.4,1.1,0.6,2.4,0.6,3.7c0,1.4-0.2,2.6-0.6,3.8c-0.4,1.1-1,2.1-1.7,2.9C159.3,52.9,158.4,53.6,157.4,54z"></path>		<path class="st0" d="M202.7,53.2l-6.3-1.9c-0.1,0-0.2,0-0.2,0c-0.3,0-0.5,0.1-0.7,0.4c-0.5,0.8-1.2,1.5-2.2,2.1   c-1.2,0.7-2.5,1.1-3.9,1.1c-1.1,0-2.1-0.2-3.1-0.7c-1-0.4-1.8-1.1-2.6-1.9c-0.7-0.8-1.3-1.8-1.7-2.9c-0.4-1.1-0.6-2.4-0.6-3.8   c0-1.4,0.2-2.6,0.6-3.8c0.4-1.1,1-2.1,1.7-2.9c0.7-0.8,1.6-1.4,2.6-1.9c1-0.4,2-0.7,3.2-0.7c1.3,0,2.6,0.3,3.6,0.9   c0.9,0.5,1.7,1.3,2.4,2.2c0.1,0.2,0.4,0.3,0.7,0.3c0.1,0,0.2,0,0.2,0l6.4-1.9c0.2-0.1,0.4-0.2,0.5-0.5c0.1-0.2,0.1-0.5-0.1-0.7   c-1.2-2-2.8-3.7-4.9-4.9c-2.4-1.5-5.3-2.2-8.7-2.2c-2.5,0-4.8,0.4-6.8,1.3s-3.8,2.1-5.2,3.5c-1.4,1.5-2.5,3.2-3.3,5.1   c-0.8,1.9-1.1,4-1.1,6.2c0,2.1,0.4,4.2,1.2,6.2s1.9,3.7,3.3,5.2c1.4,1.5,3.2,2.7,5.2,3.5c2,0.9,4.3,1.3,6.8,1.3   c3.4,0,6.4-0.8,8.9-2.3c2.2-1.3,3.8-3,4.9-5c0.1-0.2,0.1-0.5,0-0.7C203.1,53.4,203,53.2,202.7,53.2z"></path>		<path class="st0" d="M213.9,29.8h-6.5c-0.4,0-0.8,0.4-0.8,0.8v29.6c0,0.4,0.4,0.8,0.8,0.8h6.5c0.4,0,0.8-0.4,0.8-0.8V30.6   C214.7,30.2,214.3,29.8,213.9,29.8z"></path>		<path class="st0" d="M213.9,17.6h-6.5c-0.4,0-0.8,0.4-0.8,0.8v6.4c0,0.4,0.4,0.8,0.8,0.8h6.5c0.4,0,0.8-0.4,0.8-0.8v-6.4   C214.7,18,214.3,17.6,213.9,17.6z"></path>		<path class="st0" d="M248.5,54c-0.4-0.1-0.7-0.3-0.9-0.5c-0.3-0.3-0.4-0.9-0.4-1.7v-9.7c0-4.1-1.3-7.4-3.7-9.6   c-2.5-2.2-6-3.3-10.4-3.3s-8.6,1.2-12.4,3.6c-0.3,0.2-0.5,0.7-0.3,1l2.1,4.4v0.1h0.1c1.6-1.1,3.3-2,4.8-2.6   c1.6-0.6,3.2-0.9,4.8-0.9c2.3,0,4,0.6,5.1,1.6c1.1,1.1,1.7,2.7,1.7,4.7V42c0,0.4-0.3,0.7-0.7,0.7c-0.1,0-0.2,0-0.2,0   c-0.8-0.3-1.6-0.5-2.5-0.6c-1.3-0.2-2.7-0.4-4.1-0.4c-1.9,0-3.7,0.3-5.4,0.7c-1.6,0.5-3,1.2-4.2,2.1c-1.2,0.9-2.1,1.9-2.7,3.2   c-0.7,1.2-1,2.6-1,4.1c0,1.4,0.3,2.7,0.8,3.9s1.3,2.2,2.2,3.1c1,0.9,2.1,1.6,3.4,2.1c1.3,0.5,2.7,0.7,4.2,0.7   c2.3,0,4.4-0.5,6.4-1.4c1.5-0.7,2.8-1.7,4-2.9c0.1-0.1,0.3-0.2,0.5-0.2c0.3,0,0.6,0.2,0.7,0.6c0.2,1.1,0.7,2,1.5,2.7s2,1,3.5,1   c0.8,0,1.8-0.1,2.9-0.3c0.4-0.1,0.7-0.4,0.7-0.8v-5.5C249,54.5,248.8,54.1,248.5,54z M239.1,47.8v3c0,0.8-0.4,1.5-1.3,2.2   c-0.7,0.8-1.6,1.4-2.8,1.9s-2.5,0.7-3.8,0.7c-1.5,0-2.7-0.4-3.8-1.3c-1-0.9-1.5-2-1.5-3.3c0-1.4,0.6-2.6,1.9-3.5   c1.3-0.9,3-1.4,5-1.4c1,0,2.1,0.1,3.2,0.3c0.9,0.2,1.8,0.4,2.6,0.7C238.9,47.3,239.1,47.5,239.1,47.8z"></path>		<path class="st0" d="M267.9,54.7c-0.1-0.4-0.4-0.7-0.8-0.7c-0.1,0-0.2,0-0.3,0c-0.3,0.1-0.5,0.2-0.8,0.3c-0.6,0.2-1.1,0.2-1.6,0.2   c-1,0-1.8-0.3-2.3-0.9c-0.5-0.6-0.8-1.5-0.8-2.6V18.4c0-0.4-0.4-0.8-0.8-0.8H254c-0.4,0-0.8,0.4-0.8,0.8v35.4   c0,2.5,0.7,4.4,2.1,5.7s3.3,2,5.8,2c1.1,0,2.4-0.1,3.9-0.4c1.2-0.2,2.3-0.6,3.2-1c0.3-0.1,0.5-0.5,0.5-0.9L267.9,54.7z"></path>		<path class="st0" d="M300,39.9c-0.2-0.1-0.4-0.3-0.4-0.6s0.1-0.5,0.3-0.6c1.3-0.8,2.3-1.9,3.1-3.3c1-1.8,1.5-3.8,1.5-5.8   c0-1.3-0.2-2.6-0.7-3.9s-1.1-2.4-1.9-3.5c-0.8-1-1.9-1.8-3-2.5c-1.2-0.6-2.5-1-4-1h-21.8c-0.4,0-0.8,0.4-0.8,0.8v40.6   c0,0.4,0.4,0.8,0.8,0.8h19.6c1.9,0,3.6-0.2,5.3-0.7c1.6-0.5,3.1-1.2,4.3-2.1c1.2-0.9,2.2-2.1,3-3.4c0.7-1.3,1.1-2.9,1.1-4.7   c0-2.8-0.7-5.1-2.1-6.9C303.2,41.7,301.8,40.6,300,39.9z M281.3,43h11.8c0.7,0,1.3,0.1,1.9,0.4c0.6,0.3,1.1,0.7,1.5,1.2   s0.8,1.1,1,1.8c0.3,0.7,0.4,1.4,0.4,2.1c0,0.7-0.1,1.4-0.4,2.1c-0.3,0.7-0.6,1.2-1.1,1.7s-1,0.9-1.7,1.1c-0.6,0.3-1.3,0.4-2.1,0.4   h-11.4c-0.4,0-0.7-0.3-0.7-0.7v-9.6C280.7,43.3,281,43,281.3,43z M295,35c-1,0.9-2.1,1.4-3.5,1.4h-10.2c-0.4,0-0.7-0.3-0.7-0.7   v-9.1c0-0.4,0.3-0.7,0.7-0.7h10.5c0.9,0,1.8,0.3,2.5,0.7c1.4,1,2.1,2.5,2.1,4.5C296.4,32.8,295.9,34.1,295,35z"></path>		<path class="st0" d="M336.8,34.1c-1.4-1.5-3.1-2.6-5.1-3.5s-4.3-1.3-6.8-1.3s-4.8,0.4-6.9,1.3c-2,0.9-3.8,2.1-5.2,3.5   c-1.4,1.5-2.5,3.2-3.3,5.2s-1.1,4.1-1.1,6.3c0,2.1,0.4,4.2,1.2,6.1c0.8,1.9,1.9,3.7,3.3,5.1c1.4,1.5,3.2,2.6,5.2,3.5   c2,0.8,4.3,1.3,6.8,1.3c3.5,0,6.5-0.8,9-2.3c2.2-1.3,3.9-3,5.1-5c0.1-0.2,0.1-0.5,0-0.7s-0.3-0.4-0.5-0.5l-5.3-1.5   c-0.1,0-0.1,0-0.2,0c-0.3,0-0.6,0.2-0.7,0.4c-0.5,1-1.4,1.9-2.6,2.5c-1.4,0.8-2.9,1.1-4.4,1.1c-1,0-2-0.2-2.9-0.5   c-0.9-0.4-1.8-0.9-2.5-1.5c-0.7-0.7-1.4-1.5-1.8-2.4c-0.4-0.7-0.6-1.5-0.8-2.4c0-0.2,0-0.4,0.2-0.6c0.1-0.2,0.3-0.2,0.5-0.2h22.5   c0.4,0,0.8-0.3,0.8-0.7c0-0.2,0-0.3,0-0.5c0-0.5,0-1,0-1.5c0-2.1-0.4-4.1-1.1-6.1C339.2,37.3,338.2,35.6,336.8,34.1z M332.7,41.9   c0,0.2,0,0.4-0.2,0.6c-0.1,0.2-0.3,0.2-0.5,0.2h-14.4c-0.2,0-0.4-0.1-0.5-0.2c-0.1-0.2-0.2-0.4-0.2-0.5c0.1-0.8,0.4-1.6,0.7-2.3   c0.4-0.9,1-1.7,1.7-2.4s1.5-1.2,2.4-1.6c0.9-0.4,1.9-0.6,3-0.6c2.1,0,4,0.7,5.5,2.1C331.5,38.5,332.3,40,332.7,41.9z"></path>		<path class="st0" d="M374.9,39.2c-0.7-1.9-1.8-3.7-3.2-5.1c-1.4-1.5-3.1-2.6-5.1-3.5s-4.3-1.3-6.8-1.3s-4.8,0.4-6.9,1.3   c-2,0.9-3.8,2.1-5.2,3.5c-1.4,1.5-2.5,3.2-3.3,5.2s-1.1,4.1-1.1,6.3c0,2.1,0.4,4.2,1.2,6.1c0.8,1.9,1.9,3.7,3.3,5.1   c1.4,1.5,3.2,2.6,5.2,3.5c2,0.8,4.3,1.3,6.8,1.3c3.5,0,6.5-0.8,9-2.3c2.2-1.3,3.9-3,5.1-5c0.1-0.2,0.1-0.5,0-0.7s-0.3-0.4-0.5-0.5   l-5.3-1.5c-0.1,0-0.1,0-0.2,0c-0.3,0-0.6,0.2-0.7,0.4c-0.5,1-1.4,1.9-2.6,2.5c-1.4,0.8-2.9,1.1-4.4,1.1c-1,0-2-0.2-2.9-0.5   c-0.9-0.4-1.8-0.9-2.5-1.5c-0.7-0.7-1.4-1.5-1.8-2.4c-0.4-0.7-0.6-1.5-0.8-2.4c0-0.2,0-0.4,0.2-0.6c0.1-0.2,0.3-0.2,0.5-0.2h22.5   c0.4,0,0.8-0.3,0.8-0.7c0-0.2,0-0.3,0-0.5c0-0.5,0-1,0-1.5C376,43.2,375.6,41.2,374.9,39.2z M367.6,41.9c0,0.2,0,0.4-0.2,0.6   c-0.1,0.2-0.3,0.2-0.5,0.2h-14.4c-0.2,0-0.4-0.1-0.5-0.2c-0.1-0.2-0.2-0.4-0.2-0.5c0.1-0.8,0.4-1.6,0.7-2.3c0.4-0.9,1-1.7,1.7-2.4   s1.5-1.2,2.4-1.6c0.9-0.4,1.9-0.6,3-0.6c2.1,0,4,0.7,5.5,2.1C366.4,38.5,367.3,40,367.6,41.9z"></path>	</g>	<g>		<g>			<path class="st1" d="M45.9,18c-7.2,0-13.2,4.4-15.2,13c-0.2,1,0.5,1.9,1.5,1.9h27.3c1,0,1.8-1,1.5-1.9C59.1,22.4,53.1,18,45.9,18    z"></path>		</g>		<g>			<path class="st1" d="M47.4,58.7h-2.9c-1.4,0-2.1,1.7-1.1,2.7c0.6,0.6,1.1,1.1,1.5,1.5c0.6,0.6,1.6,0.6,2.2,0    c0.4-0.4,0.9-0.9,1.5-1.5C49.5,60.4,48.8,58.7,47.4,58.7z"></path>		</g>		<g>			<path class="st1" d="M37.5,53.6h16.9c0.5,0,1-0.2,1.3-0.7c0.5-0.7,1-1.4,1.4-2.1c0.7-1.1-0.1-2.4-1.3-2.4H36.1    c-1.2,0-2,1.4-1.3,2.4c0.5,0.7,0.9,1.5,1.4,2.1C36.5,53.4,36.9,53.6,37.5,53.6z"></path>		</g>		<g>			<path class="st1" d="M51,41.6v-2c0-0.9-0.7-1.6-1.6-1.6h-7.1c-0.9,0-1.6,0.7-1.6,1.6v2c0,0.9,0.7,1.6,1.6,1.6h7.1    C50.3,43.2,51,42.5,51,41.6z"></path>		</g>		<g>			<g>				<g>					<path class="st2" d="M34.5,38H22.2c-3.4,0-6.4,2.6-6.5,6.1c-0.2,3.7,2.7,6.7,6.4,6.7c5.6,0,11.1-6.5,13.8-10.2      C36.6,39.5,35.8,38,34.5,38z"></path>				</g>			</g>			<g>				<g>					<path class="st2" d="M57.3,38h12.3c3.4,0,6.4,2.6,6.5,6.1c0.2,3.7-2.7,6.7-6.4,6.7c-5.6,0-11.1-6.5-13.8-10.2      C55.2,39.5,56,38,57.3,38z"></path>				</g>			</g>		</g>	</g></g></svg>