<svg xmlns="http://www.w3.org/2000/svg" xmlns:xlink="http://www.w3.org/1999/xlink" xmlns:serif="http://www.serif.com/" width="100%" height="100%" viewBox="0 0 375 64" xml:space="preserve" style="fill-rule:evenodd;clip-rule:evenodd;stroke-linejoin:round;stroke-miterlimit:2;">    <g id="Layer_x0020_1">        <g id="_2031935107472">            <path d="M16.851,15.769L25.564,15.769L25.564,46.874C23.764,46.874 18.147,47.162 16.779,46.73L16.851,30.746L11.883,30.746L11.955,23.905L16.779,23.761L16.851,15.769ZM37.084,23.833C40.108,22.681 44.285,24.337 46.301,25.777C48.389,27.145 50.405,29.521 51.197,32.834C52.925,40.106 47.597,45.578 42.196,47.162C34.852,49.25 29.164,44.138 27.508,38.954C26.716,36.146 26.716,19.441 27.004,15.769L35.716,15.841L35.788,41.402L45.437,35.642L37.012,30.674L37.084,23.833ZM0.002,63.291L63.293,63.291L63.293,0L0.002,0L0.002,63.291Z" style="fill:rgb(215,40,36);"></path>            <path d="M37.084,23.833L37.012,30.674L45.437,35.642L35.788,41.402L35.716,15.841L27.004,15.769C26.716,19.441 26.716,36.146 27.508,38.954C29.164,44.138 34.852,49.25 42.196,47.162C47.597,45.578 52.925,40.106 51.197,32.834C50.405,29.521 48.389,27.145 46.301,25.777C44.285,24.337 40.108,22.681 37.084,23.833Z" style="fill:rgb(255,253,253);"></path>            <path d="M222.349,47.09L217.597,47.09L217.597,31.754C224.941,31.754 233.15,30.962 233.942,39.314C234.23,42.122 232.358,44.426 230.63,45.506C228.686,46.73 225.517,47.09 222.349,47.09ZM222.349,28.153L217.597,28.153L217.597,15.121L224.581,15.121C233.87,15.121 236.606,28.153 222.349,28.153ZM213.277,50.906L226.813,50.906C234.23,50.906 240.926,43.202 237.11,34.562C236.318,32.834 233.87,30.169 231.998,29.737C232.214,29.521 232.43,29.377 232.718,29.089C237.182,25.705 237.254,19.369 234.59,15.841C230.054,9.792 221.701,11.017 213.277,11.017L213.277,50.906Z" style="fill:rgb(223,43,37);"></path>            <path d="M325.458,24.985C328.986,24.985 331.795,25.273 334.459,28.441C341.803,37.298 334.459,49.466 324.234,47.378C317.394,46.01 313.794,38.09 316.098,32.33C317.61,28.585 321.426,24.985 325.458,24.985ZM337.627,25.705C335.755,24.409 333.019,20.953 327.762,20.953C321.714,20.953 318.546,21.817 314.586,26.713C309.834,32.618 310.338,40.97 315.45,47.018C316.026,47.738 316.602,48.098 317.322,48.674C318.186,49.394 318.69,49.61 319.698,50.186C323.154,51.843 328.05,52.275 331.867,50.762C335.323,49.394 337.915,47.018 339.787,43.85C340.579,42.482 341.443,40.106 341.443,38.09L341.443,11.521L337.627,11.521L337.627,25.705Z" style="fill:rgb(222,43,37);"></path>            <path d="M289.457,24.985C292.985,24.985 295.721,25.273 298.385,28.441C305.801,37.298 298.385,49.466 288.232,47.378C279.52,45.578 276.064,33.554 283.552,27.433C284.92,26.353 287.08,24.985 289.457,24.985ZM301.625,25.705C301.049,25.273 300.329,24.553 299.681,24.049C298.817,23.329 298.529,23.113 297.449,22.609C291.329,19.513 284.128,20.593 279.376,25.705C272.68,32.978 274.264,45.434 283.696,50.186C287.872,52.275 294.137,52.275 298.241,49.538C298.961,49.106 299.825,48.53 300.401,47.954C302.993,45.506 305.441,41.978 305.441,38.09L305.441,11.521L301.625,11.521L301.625,25.705Z" style="fill:rgb(222,43,37);"></path>            <path d="M150.49,47.738C144.801,47.738 139.689,42.554 139.689,36.938C139.689,32.834 140.409,30.89 142.857,28.009C146.098,24.121 153.298,23.257 158.266,28.225C165.898,35.714 159.778,47.738 150.49,47.738ZM135.585,37.586C135.585,41.402 137.529,44.57 139.905,47.018C143.793,50.834 146.314,51.555 151.57,51.555C162.082,51.555 170.075,38.162 163.306,27.937C160.93,24.265 156.538,20.953 151.786,20.953C147.466,20.953 144.945,21.313 141.561,23.977C140.697,24.625 140.265,25.345 139.401,25.921L139.401,11.233L135.585,11.233L135.585,37.586Z" style="fill:rgb(35,35,35);"></path>            <path d="M184.907,24.769C188.364,24.769 190.956,25.489 193.116,27.649C195.06,29.665 195.924,30.89 196.644,33.986L174.323,33.986C175.475,29.089 179.363,24.769 184.907,24.769ZM170.291,34.922L170.291,37.37C170.291,44.354 177.491,51.555 184.475,51.555C188.58,51.555 191.964,50.978 194.988,48.386C196.86,46.802 199.596,43.778 199.812,41.186L195.492,41.186C195.132,42.77 193.476,44.642 192.396,45.506C186.203,50.186 175.115,46.73 174.323,37.586L200.676,37.586C200.676,33.41 200.172,29.593 197.292,26.425C196.932,25.993 196.716,25.705 196.428,25.417C194.34,23.113 189.876,20.737 186.491,20.737L184.259,20.737C177.419,20.737 170.291,28.081 170.291,34.922Z" style="fill:rgb(35,35,35);"></path>            <path d="M16.779,23.761L11.955,23.905L11.883,30.746L16.851,30.746L16.779,46.73C18.147,47.162 23.764,46.874 25.564,46.874L25.564,15.769L16.851,15.769L16.779,23.761Z" style="fill:rgb(255,253,253);"></path>            <path d="M353.612,61.059L358.148,61.059C358.508,59.403 359.516,57.531 360.164,56.091L365.276,43.85C365.708,42.914 365.924,42.194 366.356,41.33C368.804,35.786 371.109,29.593 373.557,24.193C373.917,23.329 374.205,22.393 374.565,21.601L370.1,21.601L362.9,38.738C362.468,39.674 362.108,40.61 361.676,41.618C361.46,42.122 361.244,42.554 361.1,43.058L360.38,44.354L351.38,21.601L346.915,21.601C346.987,22.537 356.132,45.506 357.356,48.53C357.932,49.898 358.004,49.754 357.428,51.123C356.78,52.635 356.204,54.219 355.556,55.947C355.124,57.027 353.684,60.123 353.612,61.059Z" style="fill:rgb(223,43,37);"></path>            <path d="M243.302,39.674C243.302,45.794 248.847,51.555 254.967,51.555C259.863,51.555 261.951,51.411 265.623,47.81C267.423,46.01 269.152,43.13 269.152,39.674L269.152,21.601L265.119,21.601L265.119,38.738C265.119,43.634 260.727,47.522 256.983,47.522C253.671,47.522 252.375,47.234 249.855,44.786C248.415,43.346 247.334,41.546 247.334,38.738L247.334,21.601L243.302,21.601L243.302,39.674Z" style="fill:rgb(222,43,37);"></path>            <path d="M104.047,39.386C104.047,45.578 109.664,51.555 116,51.555C120.32,51.555 123.272,51.05 126.297,47.954C128.025,46.154 129.969,42.842 129.969,39.386L129.969,21.601L125.937,21.601L125.937,38.954C125.937,41.402 124.928,43.49 123.272,45.146C117.512,50.906 108.152,46.154 108.152,39.386L108.152,21.601L104.047,21.601L104.047,39.386Z" style="fill:rgb(35,35,35);"></path>            <path d="M78.198,15.121L86.983,15.121L86.983,50.906L91.015,50.906L91.015,15.121L100.015,15.121L100.015,11.233L78.198,11.233L78.198,15.121Z" style="fill:rgb(35,35,35);"></path>        </g>    </g></svg>